<svg xmlns="http://www.w3.org/2000/svg" width="24" height="24" viewBox="0 0 24 24" fill="currentColor">
  <path d="M20.317 4.492c-1.53-.69-3.17-1.2-4.885-1.49a.075.075 0 0 0-.079.036c-.21.39-.444.9-.608 1.3A18.566 18.566 0 0 0 9.04 4.344c-.163-.4-.398-.911-.608-1.3a.077.077 0 0 0-.079-.036c-1.714.29-3.354.8-4.885 1.491a.07.07 0 0 0-.032.027C.533 9.093-.32 13.555.099 17.961a.08.08 0 0 0 .031.055c1.973 1.452 3.88 2.326 5.75 2.901a.078.078 0 0 0 .084-.028c.462-.63.874-1.295 1.226-1.994a.076.076 0 0 0-.041-.106c-.627-.236-1.22-.525-1.793-.854a.077.077 0 0 1-.008-.127c.12-.09.24-.183.355-.276a.074.074 0 0 1 .078-.01c3.927 1.793 8.18 1.793 12.062 0a.074.074 0 0 1 .078.01c.114.093.234.187.355.276a.077.077 0 0 1-.006.127c-.574.328-1.168.618-1.795.853a.076.076 0 0 0-.041.107c.36.698.772 1.363 1.225 1.993a.077.077 0 0 0 .084.029c1.879-.575 3.786-1.448 5.758-2.9a.077.077 0 0 0 .032-.055c.499-5.165-.838-9.592-3.549-13.442a.061.061 0 0 0-.031-.028zM8.02 15.278c-1.133 0-2.063-1.04-2.063-2.315 0-1.275.908-2.315 2.063-2.315 1.163 0 2.082 1.052 2.065 2.315 0 1.276-.902 2.315-2.065 2.315zm7.628 0c-1.132 0-2.062-1.04-2.062-2.315 0-1.275.908-2.315 2.062-2.315 1.164 0 2.084 1.052 2.066 2.315 0 1.276-.901 2.315-2.066 2.315z"/>
</svg>